<svg xmlns="http://www.w3.org/2000/svg" xmlns:xlink="http://www.w3.org/1999/xlink" width="500" zoomAndPan="magnify" viewBox="0 0 375 374.999991" height="500" preserveAspectRatio="xMidYMid meet" version="1.0"><defs><g/><clipPath id="ae396276b9"><path d="M 24 13 L 354.578125 13 L 354.578125 227.183594 L 24 227.183594 Z M 24 13 " clip-rule="nonzero"/></clipPath></defs><g fill="#67a8a1" fill-opacity="0.4"><g transform="translate(62.460938, 304.124306)"><g><path d="M 34.328125 -5.046875 L 5.1875 -19.125 L 5.1875 -22.828125 L 34.328125 -36.921875 L 34.328125 -32.46875 L 9.859375 -20.984375 L 34.328125 -9.484375 Z M 34.328125 -5.046875 "/></g></g></g><g fill="#ad795b" fill-opacity="1"><g transform="translate(62.460938, 304.124306)"><g><path d="M 34.328125 -5.046875 L 5.1875 -19.125 L 5.1875 -22.828125 L 34.328125 -36.921875 L 34.328125 -32.46875 L 9.859375 -20.984375 L 34.328125 -9.484375 Z M 34.328125 -5.046875 "/></g></g></g><g fill="#67a8a1" fill-opacity="0.4"><g transform="translate(100.499998, 304.124306)"><g><path d="M 2.96875 -3.921875 L 8.75 -3.921875 L 8.75 -37.8125 L 2.96875 -37.8125 L 2.96875 -41.734375 L 25.65625 -41.734375 C 30.25 -41.734375 34.164062 -40.769531 37.40625 -38.84375 C 40.644531 -36.914062 43.066406 -34.382812 44.671875 -31.25 C 46.273438 -28.113281 47.078125 -24.789062 47.078125 -21.28125 C 47.078125 -17.125 46.273438 -13.4375 44.671875 -10.21875 C 43.066406 -7.007812 40.671875 -4.503906 37.484375 -2.703125 C 34.296875 -0.898438 30.378906 0 25.734375 0 L 2.96875 0 Z M 25.140625 -3.921875 C 30.421875 -3.921875 34.359375 -5.503906 36.953125 -8.671875 C 39.546875 -11.835938 40.84375 -15.988281 40.84375 -21.125 C 40.84375 -24.09375 40.273438 -26.835938 39.140625 -29.359375 C 38.003906 -31.878906 36.273438 -33.914062 33.953125 -35.46875 C 31.628906 -37.03125 28.765625 -37.8125 25.359375 -37.8125 L 14.828125 -37.8125 L 14.828125 -3.921875 Z M 25.140625 -3.921875 "/></g></g></g><g fill="#67a8a1" fill-opacity="0.4"><g transform="translate(151.206865, 304.124306)"><g><path d="M 2.078125 0 L 2.078125 -3.921875 L 7.40625 -3.921875 L 19.5 -37.8125 L 14.828125 -37.8125 L 14.828125 -41.734375 L 35.21875 -41.734375 L 35.21875 -37.8125 L 30.390625 -37.8125 L 42.859375 -3.921875 L 47.890625 -3.921875 L 47.890625 0 L 30.921875 0 L 30.921875 -3.921875 L 36.484375 -3.921875 L 32.25 -16.09375 L 17.125 -16.09375 L 12.96875 -3.921875 L 18.53125 -3.921875 L 18.53125 0 Z M 18.3125 -20.015625 L 31.0625 -20.015625 L 24.984375 -37.734375 L 24.546875 -37.734375 Z M 18.3125 -20.015625 "/></g></g></g><g fill="#67a8a1" fill-opacity="0.4"><g transform="translate(201.246543, 304.124306)"><g><path d="M 45.078125 -11.265625 C 41.960938 -3.304688 35.4375 0.71875 25.5 0.8125 C 21.195312 0.8125 17.390625 -0.113281 14.078125 -1.96875 C 10.773438 -3.820312 8.207031 -6.378906 6.375 -9.640625 C 4.550781 -12.898438 3.640625 -16.65625 3.640625 -20.90625 C 3.640625 -25.0625 4.539062 -28.769531 6.34375 -32.03125 C 8.144531 -35.289062 10.710938 -37.847656 14.046875 -39.703125 C 17.378906 -41.554688 21.222656 -42.484375 25.578125 -42.484375 C 28.691406 -42.484375 31.484375 -41.898438 33.953125 -40.734375 C 36.421875 -39.578125 38.347656 -37.984375 39.734375 -35.953125 L 39.734375 -41.734375 L 44.1875 -41.734375 L 44.1875 -29.140625 L 40.1875 -28.984375 C 38.65625 -32.148438 36.726562 -34.445312 34.40625 -35.875 C 32.082031 -37.3125 29.238281 -38.03125 25.875 -38.03125 C 22.664062 -38.03125 19.835938 -37.273438 17.390625 -35.765625 C 14.941406 -34.265625 13.050781 -32.226562 11.71875 -29.65625 C 10.382812 -27.082031 9.71875 -24.191406 9.71875 -20.984375 C 9.71875 -17.523438 10.40625 -14.484375 11.78125 -11.859375 C 13.164062 -9.242188 15.09375 -7.21875 17.5625 -5.78125 C 20.039062 -4.351562 22.8125 -3.640625 25.875 -3.640625 C 29.238281 -3.640625 32.238281 -4.425781 34.875 -6 C 37.519531 -7.582031 39.4375 -10.082031 40.625 -13.5 Z M 45.078125 -11.265625 "/></g></g></g><g fill="#333333" fill-opacity="1"><g transform="translate(100.499998, 304.124306)"><g><path d="M 2.96875 -3.921875 L 8.75 -3.921875 L 8.75 -37.8125 L 2.96875 -37.8125 L 2.96875 -41.734375 L 25.65625 -41.734375 C 30.25 -41.734375 34.164062 -40.769531 37.40625 -38.84375 C 40.644531 -36.914062 43.066406 -34.382812 44.671875 -31.25 C 46.273438 -28.113281 47.078125 -24.789062 47.078125 -21.28125 C 47.078125 -17.125 46.273438 -13.4375 44.671875 -10.21875 C 43.066406 -7.007812 40.671875 -4.503906 37.484375 -2.703125 C 34.296875 -0.898438 30.378906 0 25.734375 0 L 2.96875 0 Z M 25.140625 -3.921875 C 30.421875 -3.921875 34.359375 -5.503906 36.953125 -8.671875 C 39.546875 -11.835938 40.84375 -15.988281 40.84375 -21.125 C 40.84375 -24.09375 40.273438 -26.835938 39.140625 -29.359375 C 38.003906 -31.878906 36.273438 -33.914062 33.953125 -35.46875 C 31.628906 -37.03125 28.765625 -37.8125 25.359375 -37.8125 L 14.828125 -37.8125 L 14.828125 -3.921875 Z M 25.140625 -3.921875 "/></g></g></g><g fill="#333333" fill-opacity="1"><g transform="translate(151.206865, 304.124306)"><g><path d="M 2.078125 0 L 2.078125 -3.921875 L 7.40625 -3.921875 L 19.5 -37.8125 L 14.828125 -37.8125 L 14.828125 -41.734375 L 35.21875 -41.734375 L 35.21875 -37.8125 L 30.390625 -37.8125 L 42.859375 -3.921875 L 47.890625 -3.921875 L 47.890625 0 L 30.921875 0 L 30.921875 -3.921875 L 36.484375 -3.921875 L 32.25 -16.09375 L 17.125 -16.09375 L 12.96875 -3.921875 L 18.53125 -3.921875 L 18.53125 0 Z M 18.3125 -20.015625 L 31.0625 -20.015625 L 24.984375 -37.734375 L 24.546875 -37.734375 Z M 18.3125 -20.015625 "/></g></g></g><g fill="#333333" fill-opacity="1"><g transform="translate(201.246543, 304.124306)"><g><path d="M 45.078125 -11.265625 C 41.960938 -3.304688 35.4375 0.71875 25.5 0.8125 C 21.195312 0.8125 17.390625 -0.113281 14.078125 -1.96875 C 10.773438 -3.820312 8.207031 -6.378906 6.375 -9.640625 C 4.550781 -12.898438 3.640625 -16.65625 3.640625 -20.90625 C 3.640625 -25.0625 4.539062 -28.769531 6.34375 -32.03125 C 8.144531 -35.289062 10.710938 -37.847656 14.046875 -39.703125 C 17.378906 -41.554688 21.222656 -42.484375 25.578125 -42.484375 C 28.691406 -42.484375 31.484375 -41.898438 33.953125 -40.734375 C 36.421875 -39.578125 38.347656 -37.984375 39.734375 -35.953125 L 39.734375 -41.734375 L 44.1875 -41.734375 L 44.1875 -29.140625 L 40.1875 -28.984375 C 38.65625 -32.148438 36.726562 -34.445312 34.40625 -35.875 C 32.082031 -37.3125 29.238281 -38.03125 25.875 -38.03125 C 22.664062 -38.03125 19.835938 -37.273438 17.390625 -35.765625 C 14.941406 -34.265625 13.050781 -32.226562 11.71875 -29.65625 C 10.382812 -27.082031 9.71875 -24.191406 9.71875 -20.984375 C 9.71875 -17.523438 10.40625 -14.484375 11.78125 -11.859375 C 13.164062 -9.242188 15.09375 -7.21875 17.5625 -5.78125 C 20.039062 -4.351562 22.8125 -3.640625 25.875 -3.640625 C 29.238281 -3.640625 32.238281 -4.425781 34.875 -6 C 37.519531 -7.582031 39.4375 -10.082031 40.625 -13.5 Z M 45.078125 -11.265625 "/></g></g></g><g fill="#67a8a1" fill-opacity="0.4"><g transform="translate(250.546863, 304.124306)"><g><path d="M 0.734375 10.375 L 21.5 -43.96875 L 26.171875 -43.96875 L 5.40625 10.375 Z M 0.734375 10.375 "/></g></g></g><g fill="#67a8a1" fill-opacity="0.4"><g transform="translate(274.491769, 304.124306)"><g><path d="M 3.703125 -5.046875 L 3.703125 -9.484375 L 28.171875 -20.984375 L 3.703125 -32.46875 L 3.703125 -36.921875 L 32.84375 -22.828125 L 32.84375 -19.125 Z M 3.703125 -5.046875 "/></g></g></g><g fill="#ad795b" fill-opacity="1"><g transform="translate(250.546863, 304.124306)"><g><path d="M 0.734375 10.375 L 21.5 -43.96875 L 26.171875 -43.96875 L 5.40625 10.375 Z M 0.734375 10.375 "/></g></g></g><g fill="#ad795b" fill-opacity="1"><g transform="translate(274.491769, 304.124306)"><g><path d="M 3.703125 -5.046875 L 3.703125 -9.484375 L 28.171875 -20.984375 L 3.703125 -32.46875 L 3.703125 -36.921875 L 32.84375 -22.828125 L 32.84375 -19.125 Z M 3.703125 -5.046875 "/></g></g></g><g fill="#333333" fill-opacity="1"><g transform="translate(56.432902, 332.042323)"><g><path d="M 5.546875 0.1875 C 4.679688 0.1875 3.910156 0.078125 3.234375 -0.140625 C 2.554688 -0.359375 1.988281 -0.640625 1.53125 -0.984375 C 1.082031 -1.328125 0.738281 -1.707031 0.5 -2.125 L 1.859375 -3.796875 L 2.078125 -3.796875 C 2.453125 -3.234375 2.929688 -2.785156 3.515625 -2.453125 C 4.097656 -2.117188 4.773438 -1.953125 5.546875 -1.953125 C 6.210938 -1.953125 6.710938 -2.09375 7.046875 -2.375 C 7.378906 -2.65625 7.546875 -3.039062 7.546875 -3.53125 C 7.546875 -3.832031 7.488281 -4.082031 7.375 -4.28125 C 7.269531 -4.476562 7.09375 -4.644531 6.84375 -4.78125 C 6.59375 -4.925781 6.253906 -5.050781 5.828125 -5.15625 L 4.21875 -5.53125 C 3.09375 -5.789062 2.253906 -6.21875 1.703125 -6.8125 C 1.148438 -7.40625 0.875 -8.179688 0.875 -9.140625 C 0.875 -9.835938 1.050781 -10.453125 1.40625 -10.984375 C 1.757812 -11.523438 2.273438 -11.941406 2.953125 -12.234375 C 3.628906 -12.535156 4.441406 -12.6875 5.390625 -12.6875 C 6.347656 -12.6875 7.171875 -12.5625 7.859375 -12.3125 C 8.546875 -12.0625 9.128906 -11.671875 9.609375 -11.140625 L 8.375 -9.46875 L 8.171875 -9.46875 C 7.816406 -9.84375 7.410156 -10.117188 6.953125 -10.296875 C 6.492188 -10.484375 5.972656 -10.578125 5.390625 -10.578125 C 4.703125 -10.578125 4.179688 -10.457031 3.828125 -10.21875 C 3.472656 -9.976562 3.296875 -9.648438 3.296875 -9.234375 C 3.296875 -8.835938 3.421875 -8.519531 3.671875 -8.28125 C 3.921875 -8.050781 4.351562 -7.867188 4.96875 -7.734375 L 6.609375 -7.390625 C 7.828125 -7.140625 8.707031 -6.707031 9.25 -6.09375 C 9.800781 -5.476562 10.078125 -4.675781 10.078125 -3.6875 C 10.078125 -2.90625 9.90625 -2.222656 9.5625 -1.640625 C 9.226562 -1.066406 8.722656 -0.617188 8.046875 -0.296875 C 7.367188 0.0234375 6.535156 0.1875 5.546875 0.1875 Z M 5.546875 0.1875 "/></g></g></g><g fill="#333333" fill-opacity="1"><g transform="translate(71.675292, 332.042323)"><g><path d="M 6.828125 0.1875 C 5.679688 0.1875 4.664062 -0.046875 3.78125 -0.515625 C 2.90625 -0.984375 2.21875 -1.695312 1.71875 -2.65625 C 1.226562 -3.625 0.984375 -4.820312 0.984375 -6.25 C 0.984375 -7.6875 1.226562 -8.882812 1.71875 -9.84375 C 2.21875 -10.8125 2.90625 -11.523438 3.78125 -11.984375 C 4.664062 -12.453125 5.679688 -12.6875 6.828125 -12.6875 C 7.972656 -12.6875 8.976562 -12.453125 9.84375 -11.984375 C 10.71875 -11.523438 11.398438 -10.8125 11.890625 -9.84375 C 12.390625 -8.882812 12.640625 -7.6875 12.640625 -6.25 C 12.640625 -4.820312 12.390625 -3.625 11.890625 -2.65625 C 11.398438 -1.695312 10.71875 -0.984375 9.84375 -0.515625 C 8.976562 -0.046875 7.972656 0.1875 6.828125 0.1875 Z M 6.828125 -1.96875 C 7.890625 -1.96875 8.695312 -2.304688 9.25 -2.984375 C 9.8125 -3.671875 10.09375 -4.757812 10.09375 -6.25 C 10.09375 -7.75 9.8125 -8.84375 9.25 -9.53125 C 8.695312 -10.21875 7.890625 -10.5625 6.828125 -10.5625 C 5.753906 -10.5625 4.9375 -10.21875 4.375 -9.53125 C 3.8125 -8.84375 3.53125 -7.75 3.53125 -6.25 C 3.53125 -4.757812 3.8125 -3.671875 4.375 -2.984375 C 4.9375 -2.304688 5.753906 -1.96875 6.828125 -1.96875 Z M 6.828125 -1.96875 "/></g></g></g><g fill="#333333" fill-opacity="1"><g transform="translate(89.802461, 332.042323)"><g><path d="M 9.5625 -12.515625 L 9.5625 -10.4375 L 4.09375 -10.4375 L 4.09375 -7.125 L 9.0625 -7.125 L 9.0625 -5.078125 L 4.09375 -5.078125 L 4.09375 0 L 1.625 0 L 1.625 -12.515625 Z M 9.5625 -12.515625 "/></g></g></g><g fill="#333333" fill-opacity="1"><g transform="translate(104.411395, 332.042323)"><g><path d="M 10.03125 -12.515625 L 10.03125 -10.4375 L 6.421875 -10.4375 L 6.421875 0 L 3.953125 0 L 3.953125 -10.4375 L 0.34375 -10.4375 L 0.34375 -12.515625 Z M 10.03125 -12.515625 "/></g></g></g><g fill="#333333" fill-opacity="1"><g transform="translate(119.277138, 332.042323)"><g><path d="M 5.96875 0 L 3.203125 0 L 0.34375 -12.515625 L 2.8125 -12.515625 L 4.703125 -3.71875 L 4.90625 -3.71875 L 7.15625 -12.515625 L 9.265625 -12.515625 L 11.5625 -3.71875 L 11.765625 -3.71875 L 13.671875 -12.515625 L 16.046875 -12.515625 L 13.1875 0 L 10.421875 0 L 8.21875 -8.078125 L 8.046875 -8.078125 Z M 5.96875 0 "/></g></g></g><g fill="#333333" fill-opacity="1"><g transform="translate(140.152128, 332.042323)"><g><path d="M 12.015625 0 L 9.40625 0 L 8.46875 -2.890625 L 3.671875 -2.890625 L 2.734375 0 L 0.1875 0 L 4.515625 -12.515625 L 7.6875 -12.515625 Z M 5.953125 -9.90625 L 4.34375 -4.96875 L 7.78125 -4.96875 L 6.15625 -9.90625 Z M 5.953125 -9.90625 "/></g></g></g><g fill="#333333" fill-opacity="1"><g transform="translate(156.841183, 332.042323)"><g><path d="M 1.625 0 L 1.625 -12.515625 L 6.65625 -12.515625 C 7.945312 -12.515625 8.921875 -12.210938 9.578125 -11.609375 C 10.242188 -11.015625 10.578125 -10.195312 10.578125 -9.15625 C 10.578125 -8.394531 10.382812 -7.769531 10 -7.28125 C 9.613281 -6.800781 9.035156 -6.429688 8.265625 -6.171875 L 8.265625 -5.984375 C 8.660156 -5.816406 8.976562 -5.5625 9.21875 -5.21875 C 9.46875 -4.882812 9.695312 -4.390625 9.90625 -3.734375 L 11.15625 0 L 8.625 0 L 7.390625 -3.734375 C 7.265625 -4.117188 7.125 -4.414062 6.96875 -4.625 C 6.8125 -4.832031 6.613281 -4.984375 6.375 -5.078125 C 6.132812 -5.171875 5.816406 -5.21875 5.421875 -5.21875 L 4.09375 -5.21875 L 4.09375 0 Z M 6.359375 -7.171875 C 7.554688 -7.171875 8.15625 -7.726562 8.15625 -8.84375 C 8.15625 -9.988281 7.554688 -10.5625 6.359375 -10.5625 L 4.09375 -10.5625 L 4.09375 -7.171875 Z M 6.359375 -7.171875 "/></g></g></g><g fill="#333333" fill-opacity="1"><g transform="translate(173.033748, 332.042323)"><g><path d="M 4.09375 -5.5 L 4.09375 -2.078125 L 10.078125 -2.078125 L 10.078125 0 L 1.625 0 L 1.625 -12.515625 L 9.9375 -12.515625 L 9.9375 -10.4375 L 4.09375 -10.4375 L 4.09375 -7.515625 L 9.203125 -7.515625 L 9.203125 -5.5 Z M 4.09375 -5.5 "/></g></g></g><g fill="#333333" fill-opacity="1"><g transform="translate(188.284693, 332.042323)"><g/></g></g><g fill="#333333" fill-opacity="1"><g transform="translate(196.910059, 332.042323)"><g><path d="M 4.09375 -5.5 L 4.09375 -2.078125 L 10.078125 -2.078125 L 10.078125 0 L 1.625 0 L 1.625 -12.515625 L 9.9375 -12.515625 L 9.9375 -10.4375 L 4.09375 -10.4375 L 4.09375 -7.515625 L 9.203125 -7.515625 L 9.203125 -5.5 Z M 4.09375 -5.5 "/></g></g></g><g fill="#333333" fill-opacity="1"><g transform="translate(212.161004, 332.042323)"><g><path d="M 4.015625 0 L 1.625 0 L 1.625 -12.515625 L 4.453125 -12.515625 L 9.484375 -4.453125 L 9.703125 -4.484375 L 9.703125 -12.515625 L 12.09375 -12.515625 L 12.09375 0 L 9.546875 0 L 4.234375 -8.609375 L 4.015625 -8.578125 Z M 4.015625 0 "/></g></g></g><g fill="#333333" fill-opacity="1"><g transform="translate(230.373771, 332.042323)"><g><path d="M 6.078125 0.1875 C 5.035156 0.1875 4.128906 -0.0507812 3.359375 -0.53125 C 2.597656 -1.007812 2.007812 -1.726562 1.59375 -2.6875 C 1.1875 -3.65625 0.984375 -4.84375 0.984375 -6.25 C 0.984375 -7.675781 1.226562 -8.867188 1.71875 -9.828125 C 2.21875 -10.796875 2.910156 -11.515625 3.796875 -11.984375 C 4.679688 -12.453125 5.703125 -12.6875 6.859375 -12.6875 C 8.054688 -12.6875 9.078125 -12.460938 9.921875 -12.015625 C 10.773438 -11.578125 11.367188 -10.921875 11.703125 -10.046875 L 9.90625 -8.953125 L 9.6875 -8.953125 C 9.4375 -9.515625 9.078125 -9.921875 8.609375 -10.171875 C 8.140625 -10.429688 7.554688 -10.5625 6.859375 -10.5625 C 5.785156 -10.5625 4.960938 -10.21875 4.390625 -9.53125 C 3.816406 -8.851562 3.53125 -7.757812 3.53125 -6.25 C 3.53125 -4.738281 3.796875 -3.640625 4.328125 -2.953125 C 4.867188 -2.273438 5.660156 -1.9375 6.703125 -1.9375 C 7.609375 -1.9375 8.273438 -2.140625 8.703125 -2.546875 C 9.128906 -2.953125 9.34375 -3.554688 9.34375 -4.359375 L 9.34375 -4.890625 L 6.375 -4.890625 L 6.375 -6.90625 L 11.796875 -6.90625 L 11.796875 0 L 9.4375 0 L 9.4375 -1.671875 L 9.25 -1.703125 C 9 -1.097656 8.609375 -0.628906 8.078125 -0.296875 C 7.554688 0.0234375 6.890625 0.1875 6.078125 0.1875 Z M 6.078125 0.1875 "/></g></g></g><g fill="#333333" fill-opacity="1"><g transform="translate(247.918844, 332.042323)"><g><path d="M 4.09375 0 L 1.625 0 L 1.625 -12.515625 L 4.09375 -12.515625 Z M 4.09375 0 "/></g></g></g><g fill="#333333" fill-opacity="1"><g transform="translate(258.144964, 332.042323)"><g><path d="M 4.015625 0 L 1.625 0 L 1.625 -12.515625 L 4.453125 -12.515625 L 9.484375 -4.453125 L 9.703125 -4.484375 L 9.703125 -12.515625 L 12.09375 -12.515625 L 12.09375 0 L 9.546875 0 L 4.234375 -8.609375 L 4.015625 -8.578125 Z M 4.015625 0 "/></g></g></g><g fill="#333333" fill-opacity="1"><g transform="translate(276.357731, 332.042323)"><g><path d="M 4.09375 -5.5 L 4.09375 -2.078125 L 10.078125 -2.078125 L 10.078125 0 L 1.625 0 L 1.625 -12.515625 L 9.9375 -12.515625 L 9.9375 -10.4375 L 4.09375 -10.4375 L 4.09375 -7.515625 L 9.203125 -7.515625 L 9.203125 -5.5 Z M 4.09375 -5.5 "/></g></g></g><g fill="#333333" fill-opacity="1"><g transform="translate(291.608676, 332.042323)"><g><path d="M 4.09375 -5.5 L 4.09375 -2.078125 L 10.078125 -2.078125 L 10.078125 0 L 1.625 0 L 1.625 -12.515625 L 9.9375 -12.515625 L 9.9375 -10.4375 L 4.09375 -10.4375 L 4.09375 -7.515625 L 9.203125 -7.515625 L 9.203125 -5.5 Z M 4.09375 -5.5 "/></g></g></g><g fill="#333333" fill-opacity="1"><g transform="translate(306.859621, 332.042323)"><g><path d="M 1.625 0 L 1.625 -12.515625 L 6.65625 -12.515625 C 7.945312 -12.515625 8.921875 -12.210938 9.578125 -11.609375 C 10.242188 -11.015625 10.578125 -10.195312 10.578125 -9.15625 C 10.578125 -8.394531 10.382812 -7.769531 10 -7.28125 C 9.613281 -6.800781 9.035156 -6.429688 8.265625 -6.171875 L 8.265625 -5.984375 C 8.660156 -5.816406 8.976562 -5.5625 9.21875 -5.21875 C 9.46875 -4.882812 9.695312 -4.390625 9.90625 -3.734375 L 11.15625 0 L 8.625 0 L 7.390625 -3.734375 C 7.265625 -4.117188 7.125 -4.414062 6.96875 -4.625 C 6.8125 -4.832031 6.613281 -4.984375 6.375 -5.078125 C 6.132812 -5.171875 5.816406 -5.21875 5.421875 -5.21875 L 4.09375 -5.21875 L 4.09375 0 Z M 6.359375 -7.171875 C 7.554688 -7.171875 8.15625 -7.726562 8.15625 -8.84375 C 8.15625 -9.988281 7.554688 -10.5625 6.359375 -10.5625 L 4.09375 -10.5625 L 4.09375 -7.171875 Z M 6.359375 -7.171875 "/></g></g></g><path fill="#ad795b" d="M 78.121094 201.355469 C 72.214844 200.074219 71.671875 187.277344 71.671875 187.277344 C 80.089844 191.542969 94.753906 192.113281 94.753906 192.113281 C 88.984375 201.851562 84.027344 202.632812 78.121094 201.355469 " fill-opacity="1" fill-rule="nonzero"/><g clip-path="url(#ae396276b9)"><path fill="#ad795b" d="M 159.277344 59.832031 C 158.867188 64.933594 154.898438 68.742188 150.414062 68.351562 C 147.285156 68.074219 144.765625 65.800781 143.644531 62.730469 C 144.089844 62.976562 144.578125 63.144531 145.101562 63.191406 C 147.324219 63.386719 149.285156 61.496094 149.488281 58.972656 C 149.691406 56.449219 148.058594 54.242188 145.835938 54.046875 C 145.292969 53.996094 144.773438 54.078125 144.285156 54.257812 C 145.871094 51.40625 148.753906 49.609375 151.898438 49.886719 C 156.378906 50.28125 159.683594 54.734375 159.277344 59.832031 Z M 87.0625 128.84375 C 87.0625 130.609375 85.695312 132.042969 84.007812 132.042969 C 82.320312 132.042969 80.949219 130.609375 80.949219 128.84375 C 80.949219 127.078125 82.320312 125.648438 84.007812 125.648438 C 85.695312 125.648438 87.0625 127.078125 87.0625 128.84375 Z M 76.46875 113.488281 C 76.46875 115.253906 75.101562 116.6875 73.414062 116.6875 C 71.726562 116.6875 70.359375 115.253906 70.359375 113.488281 C 70.359375 111.722656 71.726562 110.292969 73.414062 110.292969 C 75.101562 110.292969 76.46875 111.722656 76.46875 113.488281 Z M 70.359375 134.390625 C 72.046875 134.390625 73.414062 135.820312 73.414062 137.589844 C 73.414062 139.355469 72.046875 140.789062 70.359375 140.789062 C 68.671875 140.789062 67.304688 139.355469 67.304688 137.589844 C 67.304688 135.820312 68.671875 134.390625 70.359375 134.390625 Z M 64.859375 122.445312 C 64.859375 124.214844 63.492188 125.648438 61.804688 125.648438 C 60.117188 125.648438 58.75 124.214844 58.75 122.445312 C 58.75 120.679688 60.117188 119.246094 61.804688 119.246094 C 63.492188 119.246094 64.859375 120.679688 64.859375 122.445312 Z M 53.921875 83.507812 C 51.0625 90.230469 45.417969 94.121094 41.304688 92.207031 C 37.195312 90.289062 36.179688 83.285156 39.039062 76.566406 C 41.898438 69.847656 47.546875 65.953125 51.65625 67.867188 C 55.765625 69.789062 56.78125 76.785156 53.921875 83.507812 Z M 35.011719 215.832031 C 35.011719 222.265625 106.621094 227.488281 194.960938 227.488281 C 283.300781 227.488281 354.914062 222.265625 354.914062 215.832031 C 354.914062 211.890625 328.144531 208.414062 287.15625 206.300781 C 290.769531 201.484375 308.125 177.0625 312.691406 146.597656 C 323.628906 146.011719 327.621094 154.496094 337.804688 161.6875 C 349.484375 169.933594 354.914062 158.839844 354.914062 158.839844 C 354.914062 158.839844 343.238281 167.371094 334.003906 144.339844 C 324.769531 121.308594 308.660156 94.527344 308.660156 94.527344 L 308.660156 94.550781 C 280.753906 40.628906 206.097656 51.929688 206.097656 51.929688 C 206.097656 51.929688 191.566406 42.261719 197.675781 27.757812 C 203.789062 13.257812 176.902344 11.125 172.832031 34.15625 L 154.5 34.15625 C 154.5 34.15625 162.644531 25.820312 156.671875 16.839844 C 150.914062 8.179688 132.292969 14.996094 132.652344 36.117188 C 132.730469 40.78125 131.664062 45.441406 129.382812 49.449219 C 125 57.160156 114.988281 65.117188 92.175781 58.894531 C 53.066406 48.230469 30.664062 53.351562 25.367188 101.121094 C 20.074219 148.890625 42.476562 174.484375 77.101562 186 C 111.726562 197.515625 162.644531 177.46875 165.496094 128.84375 C 165.496094 128.84375 166.902344 149.398438 155.496094 164.480469 C 155.496094 164.480469 156.480469 184.234375 168.472656 204.328125 C 92.742188 205.25 35.011719 210.050781 35.011719 215.832031 " fill-opacity="1" fill-rule="nonzero"/></g></svg>