<svg xmlns="http://www.w3.org/2000/svg" xmlns:xlink="http://www.w3.org/1999/xlink" width="500" zoomAndPan="magnify" viewBox="0 0 375 374.999991" height="500" preserveAspectRatio="xMidYMid meet" version="1.0"><defs><g/><clipPath id="d8baf730eb"><path d="M 114 102 L 262.5 102 L 262.5 198.730469 L 114 198.730469 Z M 114 102 " clip-rule="nonzero"/></clipPath></defs><rect x="-37.5" width="450" fill="#ffffff" y="-37.499999" height="449.999989" fill-opacity="1"/><rect x="-37.5" width="450" fill="#ffffff" y="-37.499999" height="449.999989" fill-opacity="1"/><g fill="#67a8a1" fill-opacity="0.4"><g transform="translate(87.75013, 247.125262)"><g><path d="M 27.375 -4.015625 L 4.140625 -15.265625 L 4.140625 -18.21875 L 27.375 -29.453125 L 27.375 -25.90625 L 7.859375 -16.734375 L 27.375 -7.5625 Z M 27.375 -4.015625 "/></g></g></g><g fill="#fc7e29" fill-opacity="1"><g transform="translate(87.75013, 247.125262)"><g><path d="M 27.375 -4.015625 L 4.140625 -15.265625 L 4.140625 -18.21875 L 27.375 -29.453125 L 27.375 -25.90625 L 7.859375 -16.734375 L 27.375 -7.5625 Z M 27.375 -4.015625 "/></g></g></g><g fill="#67a8a1" fill-opacity="0.4"><g transform="translate(118.089972, 247.125262)"><g><path d="M 2.359375 -3.140625 L 6.984375 -3.140625 L 6.984375 -30.15625 L 2.359375 -30.15625 L 2.359375 -33.296875 L 20.46875 -33.296875 C 24.132812 -33.296875 27.253906 -32.523438 29.828125 -30.984375 C 32.410156 -29.453125 34.34375 -27.429688 35.625 -24.921875 C 36.90625 -22.421875 37.546875 -19.769531 37.546875 -16.96875 C 37.546875 -13.65625 36.90625 -10.71875 35.625 -8.15625 C 34.34375 -5.59375 32.429688 -3.59375 29.890625 -2.15625 C 27.347656 -0.71875 24.222656 0 20.515625 0 L 2.359375 0 Z M 20.046875 -3.140625 C 24.265625 -3.140625 27.410156 -4.398438 29.484375 -6.921875 C 31.554688 -9.441406 32.59375 -12.753906 32.59375 -16.859375 C 32.59375 -19.222656 32.132812 -21.410156 31.21875 -23.421875 C 30.3125 -25.429688 28.929688 -27.054688 27.078125 -28.296875 C 25.234375 -29.535156 22.945312 -30.15625 20.21875 -30.15625 L 11.828125 -30.15625 L 11.828125 -3.140625 Z M 20.046875 -3.140625 "/></g></g></g><g fill="#67a8a1" fill-opacity="0.4"><g transform="translate(158.536857, 247.125262)"><g><path d="M 1.65625 0 L 1.65625 -3.140625 L 5.921875 -3.140625 L 15.546875 -30.15625 L 11.828125 -30.15625 L 11.828125 -33.296875 L 28.09375 -33.296875 L 28.09375 -30.15625 L 24.25 -30.15625 L 34.1875 -3.140625 L 38.203125 -3.140625 L 38.203125 0 L 24.65625 0 L 24.65625 -3.140625 L 29.09375 -3.140625 L 25.71875 -12.828125 L 13.65625 -12.828125 L 10.34375 -3.140625 L 14.78125 -3.140625 L 14.78125 0 Z M 14.609375 -15.96875 L 24.78125 -15.96875 L 19.9375 -30.109375 L 19.578125 -30.109375 Z M 14.609375 -15.96875 "/></g></g></g><g fill="#67a8a1" fill-opacity="0.4"><g transform="translate(198.451546, 247.125262)"><g><path d="M 35.953125 -8.984375 C 33.472656 -2.640625 28.269531 0.570312 20.34375 0.65625 C 16.914062 0.65625 13.878906 -0.0820312 11.234375 -1.5625 C 8.597656 -3.039062 6.546875 -5.082031 5.078125 -7.6875 C 3.617188 -10.289062 2.890625 -13.285156 2.890625 -16.671875 C 2.890625 -19.984375 3.609375 -22.941406 5.046875 -25.546875 C 6.492188 -28.148438 8.546875 -30.191406 11.203125 -31.671875 C 13.867188 -33.148438 16.9375 -33.890625 20.40625 -33.890625 C 22.882812 -33.890625 25.109375 -33.425781 27.078125 -32.5 C 29.054688 -31.570312 30.597656 -30.300781 31.703125 -28.6875 L 31.703125 -33.296875 L 35.25 -33.296875 L 35.25 -23.25 L 32.046875 -23.125 C 30.828125 -25.644531 29.289062 -27.476562 27.4375 -28.625 C 25.582031 -29.769531 23.316406 -30.34375 20.640625 -30.34375 C 18.078125 -30.34375 15.816406 -29.738281 13.859375 -28.53125 C 11.910156 -27.332031 10.40625 -25.707031 9.34375 -23.65625 C 8.28125 -21.601562 7.75 -19.296875 7.75 -16.734375 C 7.75 -13.972656 8.300781 -11.546875 9.40625 -9.453125 C 10.507812 -7.367188 12.046875 -5.753906 14.015625 -4.609375 C 15.984375 -3.460938 18.191406 -2.890625 20.640625 -2.890625 C 23.316406 -2.890625 25.707031 -3.519531 27.8125 -4.78125 C 29.925781 -6.050781 31.457031 -8.046875 32.40625 -10.765625 Z M 35.953125 -8.984375 "/></g></g></g><g fill="#231f20" fill-opacity="1"><g transform="translate(118.089972, 247.125262)"><g><path d="M 2.359375 -3.140625 L 6.984375 -3.140625 L 6.984375 -30.15625 L 2.359375 -30.15625 L 2.359375 -33.296875 L 20.46875 -33.296875 C 24.132812 -33.296875 27.253906 -32.523438 29.828125 -30.984375 C 32.410156 -29.453125 34.34375 -27.429688 35.625 -24.921875 C 36.90625 -22.421875 37.546875 -19.769531 37.546875 -16.96875 C 37.546875 -13.65625 36.90625 -10.71875 35.625 -8.15625 C 34.34375 -5.59375 32.429688 -3.59375 29.890625 -2.15625 C 27.347656 -0.71875 24.222656 0 20.515625 0 L 2.359375 0 Z M 20.046875 -3.140625 C 24.265625 -3.140625 27.410156 -4.398438 29.484375 -6.921875 C 31.554688 -9.441406 32.59375 -12.753906 32.59375 -16.859375 C 32.59375 -19.222656 32.132812 -21.410156 31.21875 -23.421875 C 30.3125 -25.429688 28.929688 -27.054688 27.078125 -28.296875 C 25.234375 -29.535156 22.945312 -30.15625 20.21875 -30.15625 L 11.828125 -30.15625 L 11.828125 -3.140625 Z M 20.046875 -3.140625 "/></g></g></g><g fill="#231f20" fill-opacity="1"><g transform="translate(158.536857, 247.125262)"><g><path d="M 1.65625 0 L 1.65625 -3.140625 L 5.921875 -3.140625 L 15.546875 -30.15625 L 11.828125 -30.15625 L 11.828125 -33.296875 L 28.09375 -33.296875 L 28.09375 -30.15625 L 24.25 -30.15625 L 34.1875 -3.140625 L 38.203125 -3.140625 L 38.203125 0 L 24.65625 0 L 24.65625 -3.140625 L 29.09375 -3.140625 L 25.71875 -12.828125 L 13.65625 -12.828125 L 10.34375 -3.140625 L 14.78125 -3.140625 L 14.78125 0 Z M 14.609375 -15.96875 L 24.78125 -15.96875 L 19.9375 -30.109375 L 19.578125 -30.109375 Z M 14.609375 -15.96875 "/></g></g></g><g fill="#231f20" fill-opacity="1"><g transform="translate(198.451546, 247.125262)"><g><path d="M 35.953125 -8.984375 C 33.472656 -2.640625 28.269531 0.570312 20.34375 0.65625 C 16.914062 0.65625 13.878906 -0.0820312 11.234375 -1.5625 C 8.597656 -3.039062 6.546875 -5.082031 5.078125 -7.6875 C 3.617188 -10.289062 2.890625 -13.285156 2.890625 -16.671875 C 2.890625 -19.984375 3.609375 -22.941406 5.046875 -25.546875 C 6.492188 -28.148438 8.546875 -30.191406 11.203125 -31.671875 C 13.867188 -33.148438 16.9375 -33.890625 20.40625 -33.890625 C 22.882812 -33.890625 25.109375 -33.425781 27.078125 -32.5 C 29.054688 -31.570312 30.597656 -30.300781 31.703125 -28.6875 L 31.703125 -33.296875 L 35.25 -33.296875 L 35.25 -23.25 L 32.046875 -23.125 C 30.828125 -25.644531 29.289062 -27.476562 27.4375 -28.625 C 25.582031 -29.769531 23.316406 -30.34375 20.640625 -30.34375 C 18.078125 -30.34375 15.816406 -29.738281 13.859375 -28.53125 C 11.910156 -27.332031 10.40625 -25.707031 9.34375 -23.65625 C 8.28125 -21.601562 7.75 -19.296875 7.75 -16.734375 C 7.75 -13.972656 8.300781 -11.546875 9.40625 -9.453125 C 10.507812 -7.367188 12.046875 -5.753906 14.015625 -4.609375 C 15.984375 -3.460938 18.191406 -2.890625 20.640625 -2.890625 C 23.316406 -2.890625 25.707031 -3.519531 27.8125 -4.78125 C 29.925781 -6.050781 31.457031 -8.046875 32.40625 -10.765625 Z M 35.953125 -8.984375 "/></g></g></g><g fill="#67a8a1" fill-opacity="0.4"><g transform="translate(237.78528, 247.125262)"><g><path d="M 0.59375 8.28125 L 17.15625 -35.078125 L 20.875 -35.078125 L 4.3125 8.28125 Z M 0.59375 8.28125 "/></g></g></g><g fill="#67a8a1" fill-opacity="0.4"><g transform="translate(256.885194, 247.125262)"><g><path d="M 2.953125 -4.015625 L 2.953125 -7.5625 L 22.46875 -16.734375 L 2.953125 -25.90625 L 2.953125 -29.453125 L 26.203125 -18.21875 L 26.203125 -15.265625 Z M 2.953125 -4.015625 "/></g></g></g><g fill="#fc7e29" fill-opacity="1"><g transform="translate(237.78528, 247.125262)"><g><path d="M 0.59375 8.28125 L 17.15625 -35.078125 L 20.875 -35.078125 L 4.3125 8.28125 Z M 0.59375 8.28125 "/></g></g></g><g fill="#fc7e29" fill-opacity="1"><g transform="translate(256.885194, 247.125262)"><g><path d="M 2.953125 -4.015625 L 2.953125 -7.5625 L 22.46875 -16.734375 L 2.953125 -25.90625 L 2.953125 -29.453125 L 26.203125 -18.21875 L 26.203125 -15.265625 Z M 2.953125 -4.015625 "/></g></g></g><g fill="#231f20" fill-opacity="1"><g transform="translate(96.127112, 272.905464)"><g><path d="M 3.96875 0.125 C 3.34375 0.125 2.789062 0.0507812 2.3125 -0.09375 C 1.832031 -0.25 1.429688 -0.453125 1.109375 -0.703125 C 0.785156 -0.953125 0.535156 -1.226562 0.359375 -1.53125 L 1.328125 -2.71875 L 1.484375 -2.71875 C 1.753906 -2.3125 2.097656 -1.988281 2.515625 -1.75 C 2.929688 -1.519531 3.414062 -1.40625 3.96875 -1.40625 C 4.445312 -1.40625 4.804688 -1.503906 5.046875 -1.703125 C 5.285156 -1.898438 5.40625 -2.175781 5.40625 -2.53125 C 5.40625 -2.738281 5.363281 -2.914062 5.28125 -3.0625 C 5.207031 -3.207031 5.078125 -3.328125 4.890625 -3.421875 C 4.710938 -3.523438 4.472656 -3.613281 4.171875 -3.6875 L 3.015625 -3.953125 C 2.210938 -4.140625 1.613281 -4.445312 1.21875 -4.875 C 0.820312 -5.300781 0.625 -5.851562 0.625 -6.53125 C 0.625 -7.039062 0.75 -7.488281 1 -7.875 C 1.257812 -8.257812 1.628906 -8.554688 2.109375 -8.765625 C 2.597656 -8.972656 3.179688 -9.078125 3.859375 -9.078125 C 4.546875 -9.078125 5.132812 -8.988281 5.625 -8.8125 C 6.113281 -8.632812 6.53125 -8.359375 6.875 -7.984375 L 6 -6.78125 L 5.84375 -6.78125 C 5.59375 -7.039062 5.300781 -7.238281 4.96875 -7.375 C 4.644531 -7.507812 4.273438 -7.578125 3.859375 -7.578125 C 3.367188 -7.578125 2.992188 -7.488281 2.734375 -7.3125 C 2.484375 -7.144531 2.359375 -6.910156 2.359375 -6.609375 C 2.359375 -6.328125 2.445312 -6.097656 2.625 -5.921875 C 2.800781 -5.753906 3.109375 -5.625 3.546875 -5.53125 L 4.734375 -5.296875 C 5.597656 -5.109375 6.222656 -4.796875 6.609375 -4.359375 C 7.003906 -3.921875 7.203125 -3.347656 7.203125 -2.640625 C 7.203125 -2.078125 7.082031 -1.585938 6.84375 -1.171875 C 6.601562 -0.765625 6.238281 -0.445312 5.75 -0.21875 C 5.269531 0.0078125 4.675781 0.125 3.96875 0.125 Z M 3.96875 0.125 "/></g></g></g><g fill="#231f20" fill-opacity="1"><g transform="translate(107.027616, 272.905464)"><g><path d="M 4.875 0.125 C 4.0625 0.125 3.335938 -0.0390625 2.703125 -0.375 C 2.078125 -0.707031 1.585938 -1.21875 1.234375 -1.90625 C 0.878906 -2.59375 0.703125 -3.453125 0.703125 -4.484375 C 0.703125 -5.503906 0.878906 -6.359375 1.234375 -7.046875 C 1.585938 -7.734375 2.078125 -8.242188 2.703125 -8.578125 C 3.335938 -8.910156 4.0625 -9.078125 4.875 -9.078125 C 5.695312 -9.078125 6.421875 -8.910156 7.046875 -8.578125 C 7.671875 -8.253906 8.160156 -7.742188 8.515625 -7.046875 C 8.867188 -6.359375 9.046875 -5.503906 9.046875 -4.484375 C 9.046875 -3.453125 8.867188 -2.59375 8.515625 -1.90625 C 8.160156 -1.21875 7.671875 -0.707031 7.046875 -0.375 C 6.421875 -0.0390625 5.695312 0.125 4.875 0.125 Z M 4.875 -1.40625 C 5.632812 -1.40625 6.210938 -1.648438 6.609375 -2.140625 C 7.015625 -2.628906 7.21875 -3.410156 7.21875 -4.484375 C 7.21875 -5.546875 7.015625 -6.320312 6.609375 -6.8125 C 6.210938 -7.300781 5.632812 -7.546875 4.875 -7.546875 C 4.113281 -7.546875 3.53125 -7.300781 3.125 -6.8125 C 2.726562 -6.320312 2.53125 -5.546875 2.53125 -4.484375 C 2.53125 -3.410156 2.726562 -2.628906 3.125 -2.140625 C 3.53125 -1.648438 4.113281 -1.40625 4.875 -1.40625 Z M 4.875 -1.40625 "/></g></g></g><g fill="#231f20" fill-opacity="1"><g transform="translate(119.991356, 272.905464)"><g><path d="M 6.84375 -8.953125 L 6.84375 -7.46875 L 2.9375 -7.46875 L 2.9375 -5.109375 L 6.484375 -5.109375 L 6.484375 -3.640625 L 2.9375 -3.640625 L 2.9375 0 L 1.15625 0 L 1.15625 -8.953125 Z M 6.84375 -8.953125 "/></g></g></g><g fill="#231f20" fill-opacity="1"><g transform="translate(130.438806, 272.905464)"><g><path d="M 7.1875 -8.953125 L 7.1875 -7.46875 L 4.59375 -7.46875 L 4.59375 0 L 2.828125 0 L 2.828125 -7.46875 L 0.25 -7.46875 L 0.25 -8.953125 Z M 7.1875 -8.953125 "/></g></g></g><g fill="#231f20" fill-opacity="1"><g transform="translate(141.069926, 272.905464)"><g><path d="M 4.28125 0 L 2.296875 0 L 0.25 -8.953125 L 2.015625 -8.953125 L 3.359375 -2.65625 L 3.515625 -2.65625 L 5.125 -8.953125 L 6.640625 -8.953125 L 8.265625 -2.65625 L 8.421875 -2.65625 L 9.78125 -8.953125 L 11.484375 -8.953125 L 9.4375 0 L 7.453125 0 L 5.890625 -5.78125 L 5.765625 -5.78125 Z M 4.28125 0 "/></g></g></g><g fill="#231f20" fill-opacity="1"><g transform="translate(155.998935, 272.905464)"><g><path d="M 8.59375 0 L 6.734375 0 L 6.0625 -2.0625 L 2.625 -2.0625 L 1.953125 0 L 0.140625 0 L 3.234375 -8.953125 L 5.5 -8.953125 Z M 4.265625 -7.09375 L 3.109375 -3.546875 L 5.5625 -3.546875 L 4.40625 -7.09375 Z M 4.265625 -7.09375 "/></g></g></g><g fill="#231f20" fill-opacity="1"><g transform="translate(167.934121, 272.905464)"><g><path d="M 1.15625 0 L 1.15625 -8.953125 L 4.765625 -8.953125 C 5.691406 -8.953125 6.390625 -8.738281 6.859375 -8.3125 C 7.328125 -7.882812 7.5625 -7.296875 7.5625 -6.546875 C 7.5625 -6.003906 7.421875 -5.554688 7.140625 -5.203125 C 6.867188 -4.859375 6.460938 -4.597656 5.921875 -4.421875 L 5.921875 -4.28125 C 6.203125 -4.164062 6.425781 -3.984375 6.59375 -3.734375 C 6.769531 -3.492188 6.9375 -3.140625 7.09375 -2.671875 L 7.984375 0 L 6.171875 0 L 5.296875 -2.671875 C 5.203125 -2.941406 5.097656 -3.148438 4.984375 -3.296875 C 4.878906 -3.453125 4.738281 -3.5625 4.5625 -3.625 C 4.382812 -3.695312 4.160156 -3.734375 3.890625 -3.734375 L 2.9375 -3.734375 L 2.9375 0 Z M 4.546875 -5.140625 C 5.398438 -5.140625 5.828125 -5.535156 5.828125 -6.328125 C 5.828125 -7.140625 5.398438 -7.546875 4.546875 -7.546875 L 2.9375 -7.546875 L 2.9375 -5.140625 Z M 4.546875 -5.140625 "/></g></g></g><g fill="#231f20" fill-opacity="1"><g transform="translate(179.514211, 272.905464)"><g><path d="M 2.9375 -3.9375 L 2.9375 -1.484375 L 7.203125 -1.484375 L 7.203125 0 L 1.15625 0 L 1.15625 -8.953125 L 7.109375 -8.953125 L 7.109375 -7.46875 L 2.9375 -7.46875 L 2.9375 -5.375 L 6.578125 -5.375 L 6.578125 -3.9375 Z M 2.9375 -3.9375 "/></g></g></g><g fill="#231f20" fill-opacity="1"><g transform="translate(190.420842, 272.905464)"><g/></g></g><g fill="#231f20" fill-opacity="1"><g transform="translate(196.588781, 272.905464)"><g><path d="M 2.9375 -3.9375 L 2.9375 -1.484375 L 7.203125 -1.484375 L 7.203125 0 L 1.15625 0 L 1.15625 -8.953125 L 7.109375 -8.953125 L 7.109375 -7.46875 L 2.9375 -7.46875 L 2.9375 -5.375 L 6.578125 -5.375 L 6.578125 -3.9375 Z M 2.9375 -3.9375 "/></g></g></g><g fill="#231f20" fill-opacity="1"><g transform="translate(207.495418, 272.905464)"><g><path d="M 2.875 0 L 1.15625 0 L 1.15625 -8.953125 L 3.1875 -8.953125 L 6.78125 -3.1875 L 6.953125 -3.203125 L 6.953125 -8.953125 L 8.65625 -8.953125 L 8.65625 0 L 6.84375 0 L 3.03125 -6.15625 L 2.875 -6.140625 Z M 2.875 0 "/></g></g></g><g fill="#231f20" fill-opacity="1"><g transform="translate(220.520376, 272.905464)"><g><path d="M 4.34375 0.125 C 3.601562 0.125 2.957031 -0.0390625 2.40625 -0.375 C 1.863281 -0.71875 1.441406 -1.234375 1.140625 -1.921875 C 0.847656 -2.609375 0.703125 -3.460938 0.703125 -4.484375 C 0.703125 -5.503906 0.878906 -6.359375 1.234375 -7.046875 C 1.585938 -7.734375 2.078125 -8.242188 2.703125 -8.578125 C 3.335938 -8.910156 4.070312 -9.078125 4.90625 -9.078125 C 5.769531 -9.078125 6.503906 -8.914062 7.109375 -8.59375 C 7.710938 -8.28125 8.132812 -7.8125 8.375 -7.1875 L 7.09375 -6.40625 L 6.9375 -6.40625 C 6.75 -6.8125 6.488281 -7.101562 6.15625 -7.28125 C 5.820312 -7.46875 5.40625 -7.5625 4.90625 -7.5625 C 4.132812 -7.5625 3.546875 -7.316406 3.140625 -6.828125 C 2.734375 -6.335938 2.53125 -5.554688 2.53125 -4.484375 C 2.53125 -3.398438 2.71875 -2.613281 3.09375 -2.125 C 3.476562 -1.632812 4.046875 -1.390625 4.796875 -1.390625 C 5.441406 -1.390625 5.914062 -1.53125 6.21875 -1.8125 C 6.53125 -2.101562 6.6875 -2.539062 6.6875 -3.125 L 6.6875 -3.5 L 4.5625 -3.5 L 4.5625 -4.9375 L 8.4375 -4.9375 L 8.4375 0 L 6.75 0 L 6.75 -1.203125 L 6.625 -1.21875 C 6.4375 -0.789062 6.15625 -0.457031 5.78125 -0.21875 C 5.40625 0.0078125 4.925781 0.125 4.34375 0.125 Z M 4.34375 0.125 "/></g></g></g><g fill="#231f20" fill-opacity="1"><g transform="translate(233.067803, 272.905464)"><g><path d="M 2.9375 0 L 1.15625 0 L 1.15625 -8.953125 L 2.9375 -8.953125 Z M 2.9375 0 "/></g></g></g><g fill="#231f20" fill-opacity="1"><g transform="translate(240.380615, 272.905464)"><g><path d="M 2.875 0 L 1.15625 0 L 1.15625 -8.953125 L 3.1875 -8.953125 L 6.78125 -3.1875 L 6.953125 -3.203125 L 6.953125 -8.953125 L 8.65625 -8.953125 L 8.65625 0 L 6.84375 0 L 3.03125 -6.15625 L 2.875 -6.140625 Z M 2.875 0 "/></g></g></g><g fill="#231f20" fill-opacity="1"><g transform="translate(253.405574, 272.905464)"><g><path d="M 2.9375 -3.9375 L 2.9375 -1.484375 L 7.203125 -1.484375 L 7.203125 0 L 1.15625 0 L 1.15625 -8.953125 L 7.109375 -8.953125 L 7.109375 -7.46875 L 2.9375 -7.46875 L 2.9375 -5.375 L 6.578125 -5.375 L 6.578125 -3.9375 Z M 2.9375 -3.9375 "/></g></g></g><g fill="#231f20" fill-opacity="1"><g transform="translate(264.31221, 272.905464)"><g><path d="M 2.9375 -3.9375 L 2.9375 -1.484375 L 7.203125 -1.484375 L 7.203125 0 L 1.15625 0 L 1.15625 -8.953125 L 7.109375 -8.953125 L 7.109375 -7.46875 L 2.9375 -7.46875 L 2.9375 -5.375 L 6.578125 -5.375 L 6.578125 -3.9375 Z M 2.9375 -3.9375 "/></g></g></g><g fill="#231f20" fill-opacity="1"><g transform="translate(275.218847, 272.905464)"><g><path d="M 1.15625 0 L 1.15625 -8.953125 L 4.765625 -8.953125 C 5.691406 -8.953125 6.390625 -8.738281 6.859375 -8.3125 C 7.328125 -7.882812 7.5625 -7.296875 7.5625 -6.546875 C 7.5625 -6.003906 7.421875 -5.554688 7.140625 -5.203125 C 6.867188 -4.859375 6.460938 -4.597656 5.921875 -4.421875 L 5.921875 -4.28125 C 6.203125 -4.164062 6.425781 -3.984375 6.59375 -3.734375 C 6.769531 -3.492188 6.9375 -3.140625 7.09375 -2.671875 L 7.984375 0 L 6.171875 0 L 5.296875 -2.671875 C 5.203125 -2.941406 5.097656 -3.148438 4.984375 -3.296875 C 4.878906 -3.453125 4.738281 -3.5625 4.5625 -3.625 C 4.382812 -3.695312 4.160156 -3.734375 3.890625 -3.734375 L 2.9375 -3.734375 L 2.9375 0 Z M 4.546875 -5.140625 C 5.398438 -5.140625 5.828125 -5.535156 5.828125 -6.328125 C 5.828125 -7.140625 5.398438 -7.546875 4.546875 -7.546875 L 2.9375 -7.546875 L 2.9375 -5.140625 Z M 4.546875 -5.140625 "/></g></g></g><path fill="#fc7e29" d="M 138.503906 187.019531 C 135.855469 186.445312 135.613281 180.714844 135.613281 180.714844 C 139.382812 182.625 145.953125 182.878906 145.953125 182.878906 C 143.367188 187.242188 141.148438 187.59375 138.503906 187.019531 " fill-opacity="1" fill-rule="nonzero"/><g clip-path="url(#d8baf730eb)"><path fill="#fc7e29" d="M 174.859375 123.621094 C 174.675781 125.90625 172.898438 127.613281 170.886719 127.4375 C 169.484375 127.3125 168.355469 126.292969 167.855469 124.917969 C 168.054688 125.03125 168.273438 125.105469 168.507812 125.125 C 169.503906 125.214844 170.382812 124.367188 170.472656 123.234375 C 170.5625 122.105469 169.832031 121.117188 168.835938 121.027344 C 168.59375 121.007812 168.359375 121.042969 168.140625 121.125 C 168.851562 119.847656 170.144531 119.042969 171.550781 119.164062 C 173.5625 119.34375 175.039062 121.335938 174.859375 123.621094 Z M 142.507812 154.535156 C 142.507812 155.328125 141.894531 155.972656 141.140625 155.972656 C 140.382812 155.972656 139.769531 155.328125 139.769531 154.535156 C 139.769531 153.746094 140.382812 153.105469 141.140625 153.105469 C 141.894531 153.105469 142.507812 153.746094 142.507812 154.535156 Z M 137.761719 147.660156 C 137.761719 148.449219 137.148438 149.089844 136.394531 149.089844 C 135.636719 149.089844 135.027344 148.449219 135.027344 147.660156 C 135.027344 146.867188 135.636719 146.226562 136.394531 146.226562 C 137.148438 146.226562 137.761719 146.867188 137.761719 147.660156 Z M 135.027344 157.019531 C 135.78125 157.019531 136.394531 157.664062 136.394531 158.453125 C 136.394531 159.246094 135.78125 159.886719 135.027344 159.886719 C 134.269531 159.886719 133.65625 159.246094 133.65625 158.453125 C 133.65625 157.664062 134.269531 157.019531 135.027344 157.019531 Z M 132.5625 151.671875 C 132.5625 152.460938 131.949219 153.105469 131.195312 153.105469 C 130.4375 153.105469 129.824219 152.460938 129.824219 151.671875 C 129.824219 150.878906 130.4375 150.238281 131.195312 150.238281 C 131.949219 150.238281 132.5625 150.878906 132.5625 151.671875 Z M 127.660156 134.226562 C 126.382812 137.238281 123.851562 138.980469 122.011719 138.125 C 120.167969 137.265625 119.714844 134.128906 120.992188 131.117188 C 122.273438 128.105469 124.804688 126.363281 126.644531 127.222656 C 128.488281 128.082031 128.941406 131.214844 127.660156 134.226562 Z M 119.191406 193.503906 C 119.191406 196.386719 151.269531 198.726562 190.84375 198.726562 C 230.417969 198.726562 262.5 196.386719 262.5 193.503906 C 262.5 191.742188 250.507812 190.183594 232.144531 189.234375 C 233.765625 187.078125 241.539062 176.136719 243.582031 162.492188 C 248.484375 162.226562 250.273438 166.027344 254.835938 169.25 C 260.066406 172.945312 262.5 167.976562 262.5 167.976562 C 262.5 167.976562 257.269531 171.796875 253.132812 161.480469 C 248.996094 151.160156 241.777344 139.164062 241.777344 139.164062 L 241.777344 139.175781 C 229.277344 115.019531 195.832031 120.082031 195.832031 120.082031 C 195.832031 120.082031 189.324219 115.75 192.0625 109.253906 C 194.796875 102.757812 182.753906 101.800781 180.929688 112.117188 L 172.71875 112.117188 C 172.71875 112.117188 176.367188 108.382812 173.691406 104.359375 C 171.113281 100.480469 162.769531 103.535156 162.929688 112.996094 C 162.964844 115.085938 162.488281 117.175781 161.464844 118.96875 C 159.503906 122.425781 155.015625 125.988281 144.796875 123.199219 C 127.277344 118.425781 117.242188 120.71875 114.871094 142.117188 C 112.5 163.515625 122.535156 174.980469 138.046875 180.140625 C 153.558594 185.300781 176.367188 176.320312 177.644531 154.535156 C 177.644531 154.535156 178.273438 163.746094 173.164062 170.5 C 173.164062 170.5 173.605469 179.351562 178.976562 188.351562 C 145.050781 188.765625 119.191406 190.914062 119.191406 193.503906 " fill-opacity="1" fill-rule="nonzero"/></g></svg>